<?xml version="1.0" encoding="UTF-8"?>
<!DOCTYPE svg PUBLIC "-//W3C//DTD SVG 1.1//EN" "http://www.w3.org/Graphics/SVG/1.1/DTD/svg11.dtd">
<svg version="1.1" xmlns="http://www.w3.org/2000/svg" xmlns:xlink="http://www.w3.org/1999/xlink" x="0" y="0" width="318.515" height="48.703" viewBox="0, 0, 318.515, 48.703">
  <g id="Background">
    <rect x="0" y="0" width="318.515" height="48.703" fill="#000000" fill-opacity="0"/>
  </g>
  <g id="Layer_1">
    <g>
      <path d="M5.525,17.773 L12.463,17.773 C15.56,17.773 17.409,16.161 17.409,13.463 C17.409,10.763 15.56,9.153 12.463,9.153 L5.525,9.153 z M5.525,32.007 L12.917,32.007 C15.994,32.007 17.907,30.235 17.907,27.38 C17.907,24.554 15.994,22.798 12.917,22.798 L5.525,22.798 z M13.372,37.033 L-0,37.033 L-0,4.126 L12.873,4.126 C19.078,4.126 22.934,7.635 22.934,13.281 C22.934,16.621 21.058,19.033 19.021,20.121 C21.797,21.506 23.432,24.253 23.432,27.606 C23.432,33.422 19.576,37.033 13.372,37.033" fill="#1E4E7B"/>
      <path d="M34.076,9.652 L28.551,9.652 L28.551,4.127 L34.076,4.127 z M33.939,37.033 L28.687,37.033 L28.687,13.42 L33.939,13.42 z" fill="#1E4E7B"/>
      <path d="M49.222,17.902 C45.353,17.902 44.82,21.215 44.82,24.796 C44.82,28.377 45.353,31.691 49.222,31.691 C52.837,31.691 53.578,28.934 53.578,24.796 C53.578,20.657 52.837,17.902 49.222,17.902 M48.678,46.599 C45.067,46.599 42.81,45.755 40.35,43.479 L40.11,43.258 L43.503,39.865 L43.724,40.073 C45.047,41.31 46.251,42.027 48.495,42.027 C53.083,42.027 53.578,38.157 53.578,36.491 L53.578,34.351 C52.095,35.823 50.327,36.491 47.951,36.491 C45.646,36.491 43.619,35.733 42.244,34.358 C40.015,32.129 39.568,29.047 39.568,24.796 C39.568,20.546 40.015,17.464 42.244,15.235 C43.589,13.89 45.632,13.149 47.997,13.149 C50.446,13.149 52.201,13.82 53.713,15.364 L53.713,13.421 L58.828,13.421 L58.828,36.583 C58.828,42.574 54.748,46.599 48.678,46.599" fill="#1E4E7B"/>
      <path d="M69.584,23.031 L79.27,23.031 C79.215,21.88 79.072,21.258 78.674,20.341 C77.958,18.642 76.372,17.629 74.429,17.629 C72.457,17.629 70.853,18.642 70.138,20.338 C69.74,21.253 69.634,21.859 69.584,23.031 M75.016,37.305 C70.159,37.305 64.367,35.206 64.367,25.205 C64.367,17.768 68.222,13.149 74.429,13.149 C80.539,13.149 84.489,17.614 84.489,24.522 L84.489,26.88 L69.576,26.88 C69.683,30.577 71.686,32.687 75.108,32.687 C77.72,32.687 78.961,31.924 80.461,30.422 L80.675,30.208 L84.081,33.402 L83.853,33.632 C81.584,35.899 79.316,37.305 75.016,37.305" fill="#1E4E7B"/>
      <path d="M99.63,37.034 L96.461,37.034 C91.583,37.034 89.845,33.592 89.845,30.372 L89.845,4.127 L95.097,4.127 L95.097,30.101 C95.097,31.82 95.687,32.461 97.276,32.461 L99.63,32.461 z" fill="#1E4E7B"/>
      <path d="M111.963,17.902 C110.696,17.902 109.641,18.313 108.831,19.125 C107.452,20.503 107.336,22.986 107.336,25.205 C107.336,27.423 107.452,29.905 108.831,31.283 C109.66,32.115 110.744,32.552 111.963,32.552 C113.213,32.552 114.313,32.115 115.142,31.283 C116.383,30.043 116.637,27.955 116.637,25.205 C116.637,22.987 116.522,20.505 115.142,19.125 C114.343,18.324 113.244,17.902 111.963,17.902 M111.963,37.305 C109.122,37.305 106.678,36.331 104.893,34.489 C102.424,31.92 102.083,28.509 102.083,25.205 C102.083,21.925 102.424,18.535 104.892,15.965 C106.678,14.123 109.122,13.149 111.963,13.149 C115.588,13.149 117.834,14.68 119.081,15.965 C121.549,18.536 121.889,21.926 121.889,25.205 C121.889,28.509 121.549,31.918 119.081,34.488 C117.834,35.774 115.588,37.305 111.963,37.305" fill="#1CA6DB"/>
      <path d="M150.226,37.034 L145.826,37.034 L140.659,21.657 L135.533,37.034 L131.086,37.034 L123.774,13.419 L129.335,13.419 L133.567,28.835 L138.662,13.419 L142.698,13.419 L147.748,28.83 L151.977,13.419 L157.586,13.419 z" fill="#1E4E7B"/>
      <path d="M171.229,48.703 L169.698,48.703 L169.698,0 L171.229,0 z" fill="#1E4E7B"/>
      <path d="M193.65,12.976 L189.012,12.976 L189.012,8.032 L187.194,8.032 L187.194,19.677 L189.012,19.677 L189.012,14.617 L193.65,14.617 L193.65,19.677 L195.469,19.677 L195.469,8.032 L193.65,8.032 z" fill="#1CA6DB"/>
      <path d="M199.953,11.366 L198.232,11.366 L198.232,19.676 L199.953,19.676 z" fill="#1CA6DB"/>
      <path d="M200.002,7.982 L198.183,7.982 L198.183,9.801 L200.002,9.801 z" fill="#1CA6DB"/>
      <path d="M206.877,20.825 C206.906,20.777 206.936,20.731 206.961,20.68 C206.938,20.731 206.906,20.777 206.877,20.825 M207.169,19.922 C207.165,19.965 207.158,20.005 207.15,20.046 C207.158,20.005 207.165,19.965 207.169,19.922 M206.329,21.382 C206.395,21.34 206.463,21.299 206.524,21.248 C206.465,21.299 206.397,21.34 206.329,21.382 M205.637,21.626 C205.692,21.618 205.75,21.61 205.803,21.597 C205.75,21.61 205.694,21.618 205.637,21.626 M205.516,17.922 C204.057,17.922 203.856,16.693 203.856,15.366 C203.856,14.04 204.057,12.813 205.516,12.813 C206.961,12.813 207.161,14.04 207.161,15.366 C207.161,16.693 206.961,17.922 205.516,17.922 M208.882,19.595 L208.882,11.366 L207.209,11.366 L207.209,12.191 C206.646,11.537 206.021,11.269 205.077,11.269 C204.251,11.269 203.538,11.526 203.072,11.994 C202.29,12.773 202.134,13.861 202.134,15.366 C202.134,16.87 202.29,17.96 203.072,18.74 C203.548,19.218 204.255,19.481 205.06,19.481 C205.978,19.481 206.609,19.213 207.161,18.591 L207.161,19.564 C207.161,20.858 206.448,21.629 205.256,21.629 C204.423,21.629 203.978,21.364 203.488,20.907 L203.467,20.887 L202.388,21.964 L202.363,21.987 L202.388,22.01 C203.256,22.811 204.051,23.109 205.321,23.109 C207.45,23.109 208.882,21.697 208.882,19.595" fill="#1CA6DB"/>
      <path d="M215.272,11.269 C214.453,11.269 213.73,11.572 213.173,12.148 L213.173,8.032 L211.452,8.032 L211.452,19.676 L213.173,19.676 L213.173,14.585 C213.173,13.476 213.789,12.813 214.817,12.813 C215.835,12.813 216.444,13.476 216.444,14.585 L216.444,19.676 L218.165,19.676 L218.165,14.324 C218.165,12.44 217.058,11.269 215.272,11.269" fill="#1CA6DB"/>
      <path d="M226.569,9.672 L229.076,9.672 C230.319,9.672 231.095,10.402 231.095,11.577 C231.095,12.742 230.319,13.465 229.076,13.465 L226.569,13.465 z M226.569,15.123 L229.174,15.123 C231.376,15.123 232.913,13.665 232.913,11.577 C232.913,9.49 231.376,8.032 229.174,8.032 L224.752,8.032 L224.752,19.677 L226.569,19.677 z" fill="#1CA6DB"/>
      <path d="M237.889,12.715 C238.62,12.715 239.216,13.097 239.486,13.736 C239.641,14.096 239.692,14.333 239.71,14.813 L236.067,14.813 C236.083,14.328 236.118,14.098 236.275,13.736 C236.54,13.106 237.157,12.715 237.889,12.715 M238.099,19.774 C239.614,19.774 240.414,19.279 241.212,18.481 L241.234,18.457 L240.155,17.442 L240.133,17.421 L240.111,17.442 C239.568,17.984 239.092,18.279 238.131,18.279 C236.848,18.279 236.077,17.44 236.067,16.033 L241.416,16.033 L241.416,15.27 C241.416,12.84 240.033,11.27 237.889,11.27 C235.712,11.27 234.359,12.896 234.359,15.513 C234.359,19.034 236.394,19.774 238.099,19.774" fill="#1CA6DB"/>
      <path d="M245.267,14.635 C245.267,13.58 245.946,12.812 246.88,12.812 C247.446,12.812 247.734,12.994 248.094,13.356 L248.116,13.378 L249.39,12.105 L249.412,12.082 L249.391,12.059 C248.838,11.505 248.243,11.269 247.4,11.269 C246.53,11.269 245.692,11.632 245.235,12.198 L245.235,11.365 L243.546,11.365 L243.546,19.676 L245.267,19.676 z" fill="#1CA6DB"/>
      <path d="M254.307,11.512 L252.666,11.512 L252.666,10.356 C252.666,9.75 252.97,9.43 253.546,9.43 L254.307,9.43 L254.307,7.951 L253.235,7.951 C251.652,7.951 250.944,9.119 250.944,10.275 L250.944,11.512 L250.001,11.512 L250.001,12.845 L250.944,12.845 L250.944,19.675 L252.666,19.675 L252.666,12.845 L254.307,12.845 z" fill="#1CA6DB"/>
      <path d="M260.288,17.751 C259.974,18.065 259.559,18.231 259.089,18.231 C258.631,18.231 258.221,18.065 257.907,17.751 C257.392,17.235 257.349,16.325 257.349,15.513 C257.349,14.702 257.392,13.791 257.907,13.276 C258.215,12.968 258.612,12.813 259.089,12.813 C259.57,12.813 259.985,12.973 260.288,13.276 C260.804,13.791 260.848,14.702 260.848,15.513 C260.848,16.325 260.804,17.235 260.288,17.751 M259.089,11.269 C258.091,11.269 257.235,11.61 256.611,12.256 C255.747,13.155 255.628,14.353 255.628,15.513 C255.628,16.862 255.794,17.936 256.611,18.788 C257.236,19.434 258.093,19.773 259.089,19.773 C260.363,19.773 261.148,19.237 261.584,18.788 C262.401,17.936 262.568,16.862 262.568,15.513 C262.568,14.353 262.449,13.155 261.584,12.256 C261.15,11.805 260.364,11.269 259.089,11.269" fill="#1CA6DB"/>
      <path d="M266.469,14.635 C266.469,13.58 267.148,12.812 268.081,12.812 C268.649,12.812 268.936,12.994 269.293,13.356 L269.316,13.378 L270.592,12.105 L270.614,12.082 L270.592,12.059 C270.038,11.505 269.443,11.269 268.601,11.269 C267.73,11.269 266.894,11.632 266.436,12.198 L266.436,11.365 L264.748,11.365 L264.748,19.676 L266.469,19.676 z" fill="#1CA6DB"/>
      <path d="M280.309,12.812 C281.343,12.812 281.936,13.47 281.936,14.619 L281.936,19.676 L283.657,19.676 L283.657,14.375 C283.657,13.375 283.369,12.608 282.771,12.025 C282.272,11.545 281.506,11.269 280.667,11.269 C279.581,11.269 278.759,11.645 278.085,12.449 C277.556,11.667 276.768,11.269 275.739,11.269 C274.904,11.269 274.121,11.588 273.573,12.148 L273.573,11.366 L271.886,11.366 L271.886,19.676 L273.607,19.676 L273.607,14.619 C273.607,13.286 274.473,12.812 275.283,12.812 C276.318,12.812 276.911,13.47 276.911,14.619 L276.911,19.676 L278.632,19.676 L278.632,14.536 C278.632,13.264 279.536,12.812 280.309,12.812" fill="#1CA6DB"/>
      <path d="M290.553,16.667 C290.553,17.246 290.442,17.625 290.204,17.865 C289.758,18.293 289.271,18.326 288.679,18.326 C287.697,18.326 287.199,17.944 287.199,17.187 C287.199,16.442 287.713,16.033 288.648,16.033 L290.553,16.033 z M290.586,18.972 L290.586,19.676 L292.274,19.676 L292.274,14.129 C292.274,12.232 291.121,11.269 288.843,11.269 C287.398,11.269 286.617,11.583 285.857,12.467 L285.838,12.491 L286.95,13.536 L286.976,13.561 L286.998,13.533 C287.461,12.938 287.893,12.747 288.778,12.747 C290.004,12.747 290.553,13.214 290.553,14.259 L290.553,14.814 L288.405,14.814 C286.601,14.814 285.526,15.714 285.526,17.222 C285.526,17.936 285.761,18.574 286.186,19.016 C286.709,19.54 287.399,19.775 288.419,19.775 C289.398,19.775 289.974,19.562 290.586,18.972" fill="#1CA6DB"/>
      <path d="M298.616,11.269 C297.77,11.269 297.004,11.58 296.451,12.148 L296.451,11.366 L294.761,11.366 L294.761,19.676 L296.482,19.676 L296.482,14.619 C296.482,13.287 297.35,12.813 298.161,12.813 C299.195,12.813 299.788,13.471 299.788,14.619 L299.788,19.676 L301.509,19.676 L301.509,14.375 C301.509,13.317 301.251,12.591 300.67,12.026 C300.159,11.531 299.447,11.269 298.616,11.269" fill="#1CA6DB"/>
      <path d="M307.281,12.812 C307.908,12.812 308.314,13.014 308.834,13.583 L308.856,13.607 L310.019,12.478 L310.041,12.455 L310.021,12.433 C309.24,11.607 308.447,11.269 307.281,11.269 C306.412,11.269 303.574,11.575 303.574,15.514 C303.574,16.954 303.961,18.063 304.726,18.81 C305.541,19.606 306.566,19.774 307.281,19.774 C308.438,19.774 309.231,19.432 310.021,18.593 L310.041,18.569 L308.88,17.458 L308.856,17.436 L308.834,17.46 C308.314,18.029 307.908,18.231 307.281,18.231 C306.663,18.231 306.128,17.976 305.778,17.511 C305.435,17.076 305.295,16.497 305.295,15.514 C305.295,14.541 305.435,13.967 305.778,13.532 C306.128,13.068 306.663,12.812 307.281,12.812" fill="#1CA6DB"/>
      <path d="M313.374,13.736 C313.639,13.106 314.258,12.715 314.987,12.715 C315.718,12.715 316.315,13.097 316.585,13.736 C316.742,14.096 316.791,14.333 316.81,14.813 L313.166,14.813 C313.184,14.328 313.217,14.098 313.374,13.736 M318.515,15.27 C318.515,12.84 317.132,11.27 314.987,11.27 C312.812,11.27 311.459,12.896 311.459,15.513 C311.459,19.034 313.493,19.774 315.198,19.774 C316.713,19.774 317.513,19.279 318.31,18.481 L318.334,18.457 L317.254,17.442 L317.233,17.421 L317.211,17.442 C316.667,17.984 316.191,18.279 315.231,18.279 C313.947,18.279 313.177,17.44 313.166,16.033 L318.515,16.033 z" fill="#1CA6DB"/>
      <path d="M190.965,27.024 C192.139,27.024 192.981,27.738 193.277,28.983 L193.283,29.007 L195.134,29.007 L195.128,28.969 C194.731,26.725 193.175,25.383 190.965,25.383 C189.776,25.383 188.716,25.814 187.901,26.628 C186.768,27.76 186.768,29.056 186.77,31.206 L186.77,31.401 C186.768,33.549 186.768,34.846 187.901,35.976 C188.716,36.791 189.776,37.222 190.965,37.222 C193.159,37.222 194.755,35.847 195.128,33.634 L195.134,33.599 L193.299,33.599 L193.292,33.622 C192.999,34.867 192.15,35.582 190.965,35.582 C190.301,35.582 189.687,35.33 189.281,34.892 C188.719,34.281 188.589,33.61 188.589,31.302 C188.589,28.994 188.719,28.323 189.281,27.713 C189.687,27.275 190.301,27.024 190.965,27.024" fill="#1CA6DB"/>
      <path d="M201.477,35.2 C201.166,35.513 200.752,35.681 200.281,35.681 C199.821,35.681 199.412,35.513 199.1,35.199 C198.582,34.685 198.538,33.773 198.538,32.962 C198.538,32.15 198.582,31.239 199.101,30.724 C199.406,30.416 199.802,30.261 200.281,30.261 C200.763,30.261 201.178,30.421 201.479,30.724 C201.996,31.239 202.039,32.15 202.039,32.962 C202.039,33.773 201.996,34.685 201.477,35.2 M200.281,28.719 C199.284,28.719 198.427,29.06 197.802,29.704 C196.937,30.603 196.817,31.801 196.817,32.962 C196.817,34.312 196.985,35.386 197.802,36.236 C198.429,36.88 199.285,37.221 200.281,37.221 C201.552,37.221 202.34,36.687 202.776,36.236 C203.593,35.386 203.762,34.312 203.762,32.962 C203.762,31.801 203.641,30.603 202.776,29.704 C202.34,29.255 201.555,28.719 200.281,28.719" fill="#1CA6DB"/>
      <path d="M214.721,28.719 C213.634,28.719 212.812,29.093 212.138,29.899 C211.61,29.116 210.821,28.719 209.794,28.719 C208.958,28.719 208.174,29.038 207.627,29.598 L207.627,28.816 L205.939,28.816 L205.939,37.125 L207.66,37.125 L207.66,32.068 C207.66,30.735 208.528,30.261 209.337,30.261 C210.373,30.261 210.966,30.921 210.966,32.068 L210.966,37.125 L212.687,37.125 L212.687,31.987 C212.687,30.713 213.59,30.261 214.362,30.261 C215.398,30.261 215.991,30.921 215.991,32.068 L215.991,37.125 L217.712,37.125 L217.712,31.823 C217.712,30.826 217.422,30.058 216.824,29.474 C216.327,28.993 215.56,28.719 214.721,28.719" fill="#1CA6DB"/>
      <path d="M223.612,30.26 C225.003,30.26 225.29,31.341 225.29,32.962 C225.29,34.592 225.003,35.681 223.612,35.681 C222.126,35.681 221.92,34.373 221.92,32.962 C221.92,31.558 222.126,30.26 223.612,30.26 M224.036,28.718 C223.079,28.718 222.451,28.985 221.886,29.638 L221.886,28.815 L220.199,28.815 L220.199,40.458 L221.92,40.458 L221.92,36.333 C222.47,36.956 223.114,37.222 224.052,37.222 C224.865,37.222 225.603,36.953 226.074,36.48 C226.897,35.658 227.012,34.304 227.012,32.962 C227.012,31.629 226.897,30.282 226.074,29.459 C225.605,28.988 224.861,28.718 224.036,28.718" fill="#1CA6DB"/>
      <path d="M234.135,33.873 C234.135,35.205 233.267,35.681 232.457,35.681 C231.423,35.681 230.829,35.021 230.829,33.873 L230.829,28.816 L229.108,28.816 L229.108,34.115 C229.108,35.175 229.367,35.9 229.947,36.466 C230.461,36.96 231.172,37.221 232.002,37.221 C232.849,37.221 233.615,36.91 234.168,36.343 L234.168,37.125 L235.856,37.125 L235.856,28.816 L234.135,28.816 z" fill="#1CA6DB"/>
      <path d="M240.341,26.456 L238.62,26.456 L238.62,28.963 L237.676,28.963 L237.676,30.292 L238.62,30.292 L238.62,34.8 C238.62,35.958 239.327,37.124 240.912,37.124 L241.935,37.124 L241.935,35.646 L241.221,35.646 C240.645,35.646 240.341,35.325 240.341,34.718 L240.341,30.292 L241.935,30.292 L241.935,28.963 L240.341,28.963 z" fill="#1CA6DB"/>
      <path d="M245.478,31.185 C245.747,30.546 246.35,30.162 247.091,30.162 C247.822,30.162 248.417,30.546 248.687,31.185 C248.845,31.548 248.894,31.785 248.912,32.264 L245.268,32.264 C245.287,31.775 245.32,31.547 245.478,31.185 M247.091,28.718 C244.914,28.718 243.563,30.344 243.563,32.962 C243.563,36.483 245.596,37.222 247.302,37.222 C248.817,37.222 249.616,36.728 250.414,35.928 L250.438,35.907 L249.356,34.891 L249.335,34.868 L249.313,34.892 C248.769,35.435 248.293,35.728 247.335,35.728 C246.05,35.728 245.279,34.889 245.268,33.48 L250.619,33.48 L250.619,32.719 C250.619,30.289 249.234,28.718 247.091,28.718" fill="#1CA6DB"/>
      <path d="M261.145,27.024 C262.319,27.024 263.161,27.738 263.456,28.983 L263.462,29.007 L265.313,29.007 L265.307,28.969 C264.91,26.725 263.354,25.383 261.145,25.383 C259.955,25.383 258.895,25.814 258.08,26.628 C256.947,27.76 256.947,29.056 256.949,31.206 L256.949,31.401 C256.947,33.549 256.947,34.846 258.08,35.976 C258.895,36.791 259.955,37.222 261.145,37.222 C263.339,37.222 264.934,35.847 265.307,33.634 L265.313,33.599 L263.478,33.599 L263.472,33.622 C263.178,34.867 262.33,35.582 261.145,35.582 C260.48,35.582 259.866,35.33 259.46,34.892 C258.899,34.281 258.768,33.61 258.768,31.302 C258.768,28.994 258.899,28.323 259.46,27.713 C259.866,27.275 260.48,27.024 261.145,27.024" fill="#1CA6DB"/>
      <path d="M269.059,34.718 L269.059,25.48 L267.338,25.48 L267.338,34.817 C267.338,35.934 267.939,37.125 269.63,37.125 L270.685,37.125 L270.685,35.646 L269.923,35.646 C269.31,35.646 269.059,35.377 269.059,34.718" fill="#1CA6DB"/>
      <path d="M277.388,33.873 C277.388,35.205 276.522,35.681 275.712,35.681 C274.677,35.681 274.084,35.021 274.084,33.873 L274.084,28.816 L272.363,28.816 L272.363,34.115 C272.363,35.175 272.62,35.9 273.201,36.466 C273.715,36.96 274.425,37.221 275.256,37.221 C276.103,37.221 276.87,36.91 277.422,36.344 L277.422,37.125 L279.109,37.125 L279.109,28.816 L277.388,28.816 z" fill="#1CA6DB"/>
      <path d="M285.135,30.193 C285.042,30.177 284.945,30.166 284.847,30.157 C284.945,30.164 285.04,30.179 285.135,30.193 M286.149,30.542 C286.06,30.488 285.965,30.439 285.863,30.396 C285.963,30.439 286.059,30.488 286.149,30.542 M285.357,32.216 L284.055,32.101 C283.298,32.032 282.945,31.741 282.945,31.188 C282.945,30.547 283.494,30.163 284.41,30.163 C285.278,30.163 285.955,30.363 286.423,30.758 L286.444,30.777 L287.507,29.698 L287.531,29.674 L287.504,29.654 C286.783,29.024 285.776,28.719 284.426,28.719 C282.548,28.719 281.289,29.744 281.289,31.27 C281.289,32.664 282.12,33.44 283.757,33.578 L285.073,33.692 C285.798,33.753 286.152,34.06 286.152,34.636 C286.152,35.331 285.489,35.745 284.377,35.745 C283.37,35.745 282.578,35.458 282.026,34.892 L282.002,34.869 L280.891,35.981 L280.868,36.004 L280.891,36.026 C281.96,37.077 283.199,37.222 284.377,37.222 C286.514,37.222 287.84,36.207 287.84,34.571 C287.84,33.147 287.006,32.354 285.357,32.216" fill="#1CA6DB"/>
      <path d="M291.708,26.456 L289.987,26.456 L289.987,28.963 L289.043,28.963 L289.043,30.292 L289.987,30.292 L289.987,34.8 C289.987,35.958 290.694,37.124 292.279,37.124 L293.302,37.124 L293.302,35.646 L292.588,35.646 C292.013,35.646 291.708,35.325 291.708,34.718 L291.708,30.292 L293.302,30.292 L293.302,28.963 L291.708,28.963 z" fill="#1CA6DB"/>
      <path d="M296.845,31.185 C297.114,30.546 297.717,30.162 298.458,30.162 C299.189,30.162 299.786,30.546 300.054,31.185 C300.212,31.548 300.262,31.785 300.279,32.264 L296.635,32.264 C296.654,31.775 296.688,31.547 296.845,31.185 M298.458,28.718 C296.282,28.718 294.93,30.344 294.93,32.962 C294.93,36.483 296.964,37.222 298.669,37.222 C300.184,37.222 300.983,36.728 301.781,35.928 L301.805,35.907 L300.723,34.891 L300.703,34.868 L300.68,34.892 C300.136,35.435 299.66,35.728 298.702,35.728 C297.417,35.728 296.647,34.889 296.635,33.48 L301.986,33.48 L301.986,32.719 C301.986,30.289 300.601,28.718 298.458,28.718" fill="#1CA6DB"/>
      <path d="M307.969,28.719 C307.098,28.719 306.262,29.081 305.805,29.647 L305.805,28.816 L304.116,28.816 L304.116,37.125 L305.837,37.125 L305.837,32.083 C305.837,31.027 306.516,30.261 307.448,30.261 C308.016,30.261 308.303,30.445 308.662,30.803 L308.684,30.827 L309.96,29.552 L309.983,29.531 L309.96,29.509 C309.406,28.954 308.811,28.719 307.969,28.719" fill="#1CA6DB"/>
    </g>
  </g>
</svg>
