<?xml version="1.0" encoding="UTF-8"?>
<!DOCTYPE svg PUBLIC "-//W3C//DTD SVG 1.1//EN" "http://www.w3.org/Graphics/SVG/1.1/DTD/svg11.dtd">
<svg version="1.1" xmlns="http://www.w3.org/2000/svg" xmlns:xlink="http://www.w3.org/1999/xlink" x="0" y="0" width="1200" height="1300" viewBox="0, 0, 1200, 1300">
  <g id="Background">
    <rect x="0" y="0" width="1200" height="1300" fill="#FFFFFF"/>
  </g>
  <g id="Layer_1">
    <path d="M31.583,586.167 L1168.417,586.167 L1168.417,1194.833 L31.583,1194.833 L31.583,586.167 z" fill="#EEEEEE"/>
    <path d="M798.417,868.5 L1148.417,868.5 L1148.417,1173.167 L798.417,1173.167 L798.417,868.5 z" fill="#D4CCEE"/>
    <path d="M51.583,868.5 L401.583,868.5 L401.583,1173.167 L51.583,1173.167 L51.583,868.5 z" fill="#CCDCEE"/>
    <text transform="matrix(1, 0, 0, 1, 224.917, 906.5)">
      <tspan x="-152.667" y="7" font-family="HelveticaNeue" font-size="30" fill="#383838">c1: compute node</tspan>
    </text>
    <text transform="matrix(1, 0, 0, 1, 224.917, 971)">
      <tspan x="-152.667" y="-7.5" font-family="HelveticaNeue-Light" font-size="30" fill="#333333">160 cores</tspan>
      <tspan x="-152.667" y="28.5" font-family="HelveticaNeue-Light" font-size="30" fill="#333333">1.25 TB memory</tspan>
    </text>
    <path d="M51.583,771.167 L1148.417,771.167 L1148.417,845.167 L51.583,845.167 L51.583,771.167 z" fill="#EED9CC"/>
    <text transform="matrix(1, 0, 0, 1, 224.917, 808.167)">
      <tspan x="-152.667" y="7" font-family="HelveticaNeue" font-size="30" fill="#383838">cfe: submission node</tspan>
    </text>
    <text transform="matrix(1, 0, 0, 1, 94.917, 53.167)">
      <tspan x="-63.333" y="6.333" font-family="HelveticaNeue-Medium" font-size="30" fill="#383838">queues</tspan>
    </text>
    <text transform="matrix(1, 0, 0, 1, 72.917, 105.5)">
      <tspan x="-41.333" y="6.333" font-family="HelveticaNeue" font-size="30" fill="#383838">route*</tspan>
    </text>
    <text transform="matrix(1, 0, 0, 1, 245.75, 105.5)">
      <tspan x="-65.333" y="6.333" font-family="HelveticaNeue" font-size="30" fill="#383838">normal</tspan>
    </text>
    <text transform="matrix(1, 0, 0, 1, 245.75, 196.167)">
      <tspan x="-65.333" y="6.333" font-family="HelveticaNeue" font-size="30" fill="#383838">high</tspan>
    </text>
    <text transform="matrix(1, 0, 0, 1, 245.75, 150.833)">
      <tspan x="-65.333" y="6.333" font-family="HelveticaNeue" font-size="30" fill="#383838">long</tspan>
    </text>
    <path d="M426.917,868.5 L776.917,868.5 L776.917,1173.167 L426.917,1173.167 L426.917,868.5 z" fill="#D7EED6"/>
    <path d="M426.917,1029.167 L672.493,1029.167 L672.493,1173.167 L426.917,1173.167 L426.917,1029.167 z" fill="#88BA86"/>
    <text transform="matrix(1, 0, 0, 1, 600.25, 906.5)">
      <tspan x="-152.667" y="7" font-family="HelveticaNeue" font-size="30" fill="#383838">c2: compute node</tspan>
    </text>
    <text transform="matrix(1, 0, 0, 1, 529.583, 1064.5)">
      <tspan x="-82" y="7" font-family="HelveticaNeue" font-size="30" fill="#FFFFFF">c2 (devel)</tspan>
    </text>
    <text transform="matrix(1, 0, 0, 1, 600.25, 971)">
      <tspan x="-152.667" y="-7.5" font-family="HelveticaNeue-Light" font-size="30" fill="#333333">120 cores</tspan>
      <tspan x="-152.667" y="28.5" font-family="HelveticaNeue-Light" font-size="30" fill="#333333">2.0 TB memory</tspan>
    </text>
    <text transform="matrix(1, 0, 0, 1, 971.75, 906.5)">
      <tspan x="-152.667" y="7" font-family="HelveticaNeue" font-size="30" fill="#383838">c3: compute node</tspan>
    </text>
    <text transform="matrix(1, 0, 0, 1, 971.75, 1044)">
      <tspan x="-152.667" y="-80.5" font-family="HelveticaNeue-Light" font-size="30" fill="#333333">160 cores (total)</tspan>
      <tspan x="-152.667" y="-44.5" font-family="HelveticaNeue-Light" font-size="30" fill="#333333">0.5 TB memory (total)</tspan>
      <tspan x="-152.667" y="27.5" font-family="HelveticaNeue-Light" font-size="30" fill="#333333">12 nodes</tspan>
      <tspan x="-152.667" y="63.5" font-family="HelveticaNeue-Light" font-size="30" fill="#333333"> 12 cores per node</tspan>
      <tspan x="-152.667" y="99.5" font-family="HelveticaNeue-Light" font-size="30" fill="#333333"> </tspan>
      <tspan x="-144.327" y="99.5" font-family="HelveticaNeue-Light" font-size="30" fill="#333333">32 GB per node </tspan>
    </text>
    <path d="M51.583,1029.167 L301.583,1029.167 L301.583,1173.167 L51.583,1173.167 L51.583,1029.167 z" fill="#779CC6"/>
    <text transform="matrix(1, 0, 0, 1, 178.917, 1064.5)">
      <tspan x="-106.667" y="7" font-family="HelveticaNeue" font-size="30" fill="#FFFFFF">c1 (devel)</tspan>
    </text>
    <text transform="matrix(1, 0, 0, 1, 245.75, 241.5)">
      <tspan x="-65.333" y="6.333" font-family="HelveticaNeue" font-size="30" fill="#383838">low</tspan>
    </text>
    <path d="M993.493,92.833 L1018.827,92.833 L1018.827,118.167 L993.493,118.167 L993.493,92.833 z" fill="#CCDCEE"/>
    <path d="M1029.493,92.833 L1054.827,92.833 L1054.827,118.167 L1029.493,118.167 L1029.493,92.833 z" fill="#D4CCEE"/>
    <path d="M993.493,183.5 L1018.827,183.5 L1018.827,208.833 L993.493,208.833 L993.493,183.5 z" fill="#CCDCEE"/>
    <path d="M1029.493,183.5 L1054.827,183.5 L1054.827,208.833 L1029.493,208.833 L1029.493,183.5 z" fill="#D4CCEE"/>
    <path d="M993.493,138.167 L1018.827,138.167 L1018.827,163.5 L993.493,163.5 L993.493,138.167 z" fill="#CCDCEE"/>
    <path d="M1029.493,138.167 L1054.827,138.167 L1054.827,163.5 L1029.493,163.5 L1029.493,138.167 z" fill="#D4CCEE"/>
    <path d="M993.493,228.833 L1018.827,228.833 L1018.827,254.167 L993.493,254.167 L993.493,228.833 z" fill="#CCDCEE"/>
    <path d="M1029.493,228.833 L1054.827,228.833 L1054.827,254.167 L1029.493,254.167 L1029.493,228.833 z" fill="#D7EED6"/>
    <path d="M1065.493,228.833 L1090.827,228.833 L1090.827,254.167 L1065.493,254.167 L1065.493,228.833 z" fill="#D4CCEE"/>
    <text transform="matrix(1, 0, 0, 1, 421.827, 105.5)">
      <tspan x="-35.333" y="6.333" font-family="HelveticaNeue-Light" font-size="30" fill="#383838">--</tspan>
    </text>
    <text transform="matrix(1, 0, 0, 1, 421.827, 196.166)">
      <tspan x="-35.333" y="6.333" font-family="HelveticaNeue-Light" font-size="30" fill="#383838">--</tspan>
    </text>
    <text transform="matrix(1, 0, 0, 1, 421.827, 150.833)">
      <tspan x="-35.333" y="6.333" font-family="HelveticaNeue-Light" font-size="30" fill="#383838">--</tspan>
    </text>
    <text transform="matrix(1, 0, 0, 1, 421.827, 241.5)">
      <tspan x="-35.333" y="6.333" font-family="HelveticaNeue-Light" font-size="30" fill="#383838">--</tspan>
    </text>
    <text transform="matrix(1, 0, 0, 1, 421.827, 60.167)">
      <tspan x="-35.333" y="6.333" font-family="HelveticaNeue" font-size="30" fill="#383838">cpu</tspan>
    </text>
    <text transform="matrix(1, 0, 0, 1, 526.163, 60.167)">
      <tspan x="-35.333" y="6.333" font-family="HelveticaNeue" font-size="30" fill="#383838">mem</tspan>
    </text>
    <text transform="matrix(1, 0, 0, 1, 637.16, 60.167)">
      <tspan x="-35.333" y="6.333" font-family="HelveticaNeue" font-size="30" fill="#383838">time</tspan>
    </text>
    <text transform="matrix(1, 0, 0, 1, 526.163, 105.5)">
      <tspan x="-35.333" y="6.333" font-family="HelveticaNeue-Light" font-size="30" fill="#383838">--</tspan>
    </text>
    <text transform="matrix(1, 0, 0, 1, 526.163, 196.167)">
      <tspan x="-35.333" y="6.333" font-family="HelveticaNeue-Light" font-size="30" fill="#383838">--</tspan>
    </text>
    <text transform="matrix(1, 0, 0, 1, 526.163, 150.833)">
      <tspan x="-35.333" y="6.333" font-family="HelveticaNeue-Light" font-size="30" fill="#383838">--</tspan>
    </text>
    <text transform="matrix(1, 0, 0, 1, 526.163, 241.5)">
      <tspan x="-35.333" y="6.333" font-family="HelveticaNeue-Light" font-size="30" fill="#383838">--</tspan>
    </text>
    <text transform="matrix(1, 0, 0, 1, 637.16, 105.5)">
      <tspan x="-35.333" y="6.333" font-family="HelveticaNeue-Light" font-size="30" fill="#383838">2w</tspan>
    </text>
    <text transform="matrix(1, 0, 0, 1, 637.16, 196.166)">
      <tspan x="-35.333" y="6.333" font-family="HelveticaNeue-Light" font-size="30" fill="#383838">2w</tspan>
    </text>
    <text transform="matrix(1, 0, 0, 1, 637.16, 150.833)">
      <tspan x="-35.333" y="6.333" font-family="HelveticaNeue-Light" font-size="30" fill="#383838">6w</tspan>
    </text>
    <text transform="matrix(1, 0, 0, 1, 637.16, 241.5)">
      <tspan x="-35.333" y="6.333" font-family="HelveticaNeue-Light" font-size="30" fill="#383838">8h</tspan>
    </text>
    <text transform="matrix(1, 0, 0, 1, 740.493, 60.167)">
      <tspan x="-49.333" y="6.333" font-family="HelveticaNeue" font-size="30" fill="#383838">priority</tspan>
    </text>
    <text transform="matrix(1, 0, 0, 1, 726.493, 105.5)">
      <tspan x="-35.333" y="6.333" font-family="HelveticaNeue-Light" font-size="30" fill="#383838">100</tspan>
    </text>
    <text transform="matrix(1, 0, 0, 1, 726.493, 196.167)">
      <tspan x="-35.333" y="6.333" font-family="HelveticaNeue-Light" font-size="30" fill="#383838">150</tspan>
    </text>
    <text transform="matrix(1, 0, 0, 1, 726.493, 150.833)">
      <tspan x="-35.333" y="6.333" font-family="HelveticaNeue-Light" font-size="30" fill="#383838">100</tspan>
    </text>
    <text transform="matrix(1, 0, 0, 1, 726.493, 241.5)">
      <tspan x="-35.333" y="6.333" font-family="HelveticaNeue-Light" font-size="30" fill="#383838">10</tspan>
    </text>
    <text transform="matrix(1, 0, 0, 1, 245.75, 286.834)">
      <tspan x="-65.333" y="6.333" font-family="HelveticaNeue" font-size="30" fill="#383838">devel</tspan>
    </text>
    <path d="M993.493,274.167 L1018.827,274.167 L1018.827,299.5 L993.493,299.5 L993.493,274.167 z" fill="#CCDCEE"/>
    <path d="M1029.493,274.167 L1054.827,274.167 L1054.827,299.5 L1029.493,299.5 L1029.493,274.167 z" fill="#779CC6"/>
    <text transform="matrix(1, 0, 0, 1, 421.827, 286.833)">
      <tspan x="-35.333" y="6.333" font-family="HelveticaNeue-Light" font-size="30" fill="#383838">8</tspan>
    </text>
    <text transform="matrix(1, 0, 0, 1, 526.163, 286.833)">
      <tspan x="-35.333" y="6.333" font-family="HelveticaNeue-Light" font-size="30" fill="#383838">8GB</tspan>
    </text>
    <text transform="matrix(1, 0, 0, 1, 637.16, 286.833)">
      <tspan x="-35.333" y="6.333" font-family="HelveticaNeue-Light" font-size="30" fill="#383838">8h</tspan>
    </text>
    <text transform="matrix(1, 0, 0, 1, 726.493, 286.833)">
      <tspan x="-35.333" y="6.333" font-family="HelveticaNeue-Light" font-size="30" fill="#383838">300</tspan>
    </text>
    <text transform="matrix(1, 0, 0, 1, 893.827, 60.167)">
      <tspan x="-81.333" y="6.333" font-family="HelveticaNeue" font-size="30" fill="#383838">access</tspan>
    </text>
    <text transform="matrix(1, 0, 0, 1, 893.827, 105.5)">
      <tspan x="-81.333" y="6.333" font-family="HelveticaNeue-Light" font-size="30" fill="#383838">--</tspan>
    </text>
    <text transform="matrix(1, 0, 0, 1, 893.827, 196.167)">
      <tspan x="-81.333" y="6.333" font-family="HelveticaNeue-Light" font-size="30" fill="#383838">restricted**</tspan>
    </text>
    <text transform="matrix(1, 0, 0, 1, 893.827, 150.833)">
      <tspan x="-81.333" y="6.333" font-family="HelveticaNeue-Light" font-size="30" fill="#383838">restricted**</tspan>
    </text>
    <text transform="matrix(1, 0, 0, 1, 893.827, 241.5)">
      <tspan x="-81.333" y="6.333" font-family="HelveticaNeue-Light" font-size="30" fill="#383838">--</tspan>
    </text>
    <text transform="matrix(1, 0, 0, 1, 893.827, 286.834)">
      <tspan x="-81.333" y="6.333" font-family="HelveticaNeue-Light" font-size="30" fill="#383838">--</tspan>
    </text>
    <text transform="matrix(1, 0, 0, 1, 1041.493, 60.167)">
      <tspan x="-49.333" y="6.333" font-family="HelveticaNeue" font-size="30" fill="#383838">nodes</tspan>
    </text>
    <g>
      <path d="M114.75,104.167 L152.31,104.167" fill-opacity="0" stroke="#383838" stroke-width="3"/>
      <path d="M152.31,108.367 L163.51,104.167 L152.31,99.967 z" fill="#383838" fill-opacity="1" stroke="#383838" stroke-width="3" stroke-opacity="1"/>
    </g>
    <g>
      <path d="M131.417,151.333 L152.31,151.333" fill-opacity="0" stroke="#383838" stroke-width="3" stroke-linecap="square"/>
      <path d="M152.31,155.533 L163.51,151.333 L152.31,147.133 z" fill="#383838" fill-opacity="1" stroke="#383838" stroke-width="3" stroke-opacity="1"/>
    </g>
    <path d="M131.417,105.083 L131.417,151.333" fill-opacity="0" stroke="#383838" stroke-width="3" stroke-linecap="square"/>
    <text transform="matrix(1, 0, 0, 1, 594.25, 630.833)">
      <tspan x="-542.667" y="7" font-family="HelveticaNeue" font-size="30" fill="#383838">charlie: high performance computing cluster</tspan>
    </text>
    <text transform="matrix(1, 0, 0, 1, 178.917, 1123)">
      <tspan x="-106.667" y="-7.5" font-family="HelveticaNeue-Light" font-size="30" fill="#FFFFFF">32 cores</tspan>
      <tspan x="-106.667" y="28.5" font-family="HelveticaNeue-Light" font-size="30" fill="#FFFFFF">64 GB memory</tspan>
    </text>
    <text transform="matrix(1, 0, 0, 1, 571.583, 1123)">
      <tspan x="-124" y="-7.5" font-family="HelveticaNeue-Light" font-size="30" fill="#FFFFFF">8 cores</tspan>
      <tspan x="-124" y="28.5" font-family="HelveticaNeue-Light" font-size="30" fill="#FFFFFF">64 GB memory</tspan>
    </text>
    <path d="M1065.493,274.167 L1090.827,274.167 L1090.827,299.5 L1065.493,299.5 L1065.493,274.167 z" fill="#D4CCEE"/>
    <text transform="matrix(1, 0, 0, 1, 72.917, 374.166)">
      <tspan x="-41.333" y="-7.5" font-family="HelveticaNeue" font-size="30" fill="#383838">scgc-</tspan>
      <tspan x="-41.333" y="28.5" font-family="HelveticaNeue" font-size="30" fill="#383838">route*</tspan>
    </text>
    <text transform="matrix(1, 0, 0, 1, 273.872, 360.333)">
      <tspan x="-93.455" y="6.333" font-family="HelveticaNeue" font-size="30" fill="#383838">scgc-normal</tspan>
    </text>
    <text transform="matrix(1, 0, 0, 1, 273.872, 451)">
      <tspan x="-93.455" y="6.333" font-family="HelveticaNeue" font-size="30" fill="#383838">scgc-high</tspan>
    </text>
    <text transform="matrix(1, 0, 0, 1, 273.872, 405.666)">
      <tspan x="-93.455" y="6.333" font-family="HelveticaNeue" font-size="30" fill="#383838">scgc-long</tspan>
    </text>
    <text transform="matrix(1, 0, 0, 1, 273.872, 496.333)">
      <tspan x="-93.455" y="6.333" font-family="HelveticaNeue" font-size="30" fill="#383838">scgc-low</tspan>
    </text>
    <path d="M993.493,347.666 L1018.827,347.666 L1018.827,373 L993.493,373 L993.493,347.666 z" fill="#D7EED6"/>
    <path d="M1029.493,347.666 L1054.827,347.666 L1054.827,373 L1029.493,373 L1029.493,347.666 z" fill="#D4CCEE"/>
    <path d="M993.493,438.333 L1018.827,438.333 L1018.827,463.666 L993.493,463.666 L993.493,438.333 z" fill="#D7EED6"/>
    <path d="M1029.493,438.333 L1054.827,438.333 L1054.827,463.666 L1029.493,463.666 L1029.493,438.333 z" fill="#D4CCEE"/>
    <path d="M993.493,393 L1018.827,393 L1018.827,418.333 L993.493,418.333 L993.493,393 z" fill="#D7EED6"/>
    <path d="M1029.493,393 L1054.827,393 L1054.827,418.333 L1029.493,418.333 L1029.493,393 z" fill="#D4CCEE"/>
    <path d="M993.493,483.666 L1018.827,483.666 L1018.827,509 L993.493,509 L993.493,483.666 z" fill="#D7EED6"/>
    <path d="M1029.493,483.666 L1054.827,483.666 L1054.827,509 L1029.493,509 L1029.493,483.666 z" fill="#CCDCEE"/>
    <path d="M1065.493,483.667 L1090.827,483.667 L1090.827,509 L1065.493,509 L1065.493,483.667 z" fill="#D4CCEE"/>
    <text transform="matrix(1, 0, 0, 1, 421.827, 360.333)">
      <tspan x="-35.333" y="6.333" font-family="HelveticaNeue-Light" font-size="30" fill="#383838">--</tspan>
    </text>
    <text transform="matrix(1, 0, 0, 1, 421.827, 451)">
      <tspan x="-35.333" y="6.333" font-family="HelveticaNeue-Light" font-size="30" fill="#383838">--</tspan>
    </text>
    <text transform="matrix(1, 0, 0, 1, 421.827, 405.666)">
      <tspan x="-35.333" y="6.333" font-family="HelveticaNeue-Light" font-size="30" fill="#383838">--</tspan>
    </text>
    <text transform="matrix(1, 0, 0, 1, 421.827, 496.333)">
      <tspan x="-35.333" y="6.333" font-family="HelveticaNeue-Light" font-size="30" fill="#383838">--</tspan>
    </text>
    <text transform="matrix(1, 0, 0, 1, 526.163, 360.333)">
      <tspan x="-35.333" y="6.333" font-family="HelveticaNeue-Light" font-size="30" fill="#383838">--</tspan>
    </text>
    <text transform="matrix(1, 0, 0, 1, 526.163, 451)">
      <tspan x="-35.333" y="6.333" font-family="HelveticaNeue-Light" font-size="30" fill="#383838">--</tspan>
    </text>
    <text transform="matrix(1, 0, 0, 1, 526.163, 405.666)">
      <tspan x="-35.333" y="6.333" font-family="HelveticaNeue-Light" font-size="30" fill="#383838">--</tspan>
    </text>
    <text transform="matrix(1, 0, 0, 1, 526.163, 496.333)">
      <tspan x="-35.333" y="6.333" font-family="HelveticaNeue-Light" font-size="30" fill="#383838">--</tspan>
    </text>
    <text transform="matrix(1, 0, 0, 1, 637.16, 360.333)">
      <tspan x="-35.333" y="6.333" font-family="HelveticaNeue-Light" font-size="30" fill="#383838">2w</tspan>
    </text>
    <text transform="matrix(1, 0, 0, 1, 637.16, 451)">
      <tspan x="-35.333" y="6.333" font-family="HelveticaNeue-Light" font-size="30" fill="#383838">2w</tspan>
    </text>
    <text transform="matrix(1, 0, 0, 1, 637.16, 405.666)">
      <tspan x="-35.333" y="6.333" font-family="HelveticaNeue-Light" font-size="30" fill="#383838">6w</tspan>
    </text>
    <text transform="matrix(1, 0, 0, 1, 637.16, 496.333)">
      <tspan x="-35.333" y="6.333" font-family="HelveticaNeue-Light" font-size="30" fill="#383838">8h</tspan>
    </text>
    <text transform="matrix(1, 0, 0, 1, 726.493, 360.333)">
      <tspan x="-35.333" y="6.333" font-family="HelveticaNeue-Light" font-size="30" fill="#383838">100</tspan>
    </text>
    <text transform="matrix(1, 0, 0, 1, 726.493, 451)">
      <tspan x="-35.333" y="6.333" font-family="HelveticaNeue-Light" font-size="30" fill="#383838">150</tspan>
    </text>
    <text transform="matrix(1, 0, 0, 1, 726.493, 405.666)">
      <tspan x="-35.333" y="6.333" font-family="HelveticaNeue-Light" font-size="30" fill="#383838">100</tspan>
    </text>
    <text transform="matrix(1, 0, 0, 1, 726.493, 496.333)">
      <tspan x="-35.333" y="6.333" font-family="HelveticaNeue-Light" font-size="30" fill="#383838">10</tspan>
    </text>
    <text transform="matrix(1, 0, 0, 1, 273.872, 541.667)">
      <tspan x="-93.455" y="6.333" font-family="HelveticaNeue" font-size="30" fill="#383838">scgc-devel</tspan>
    </text>
    <path d="M993.493,529 L1018.827,529 L1018.827,554.333 L993.493,554.333 L993.493,529 z" fill="#D7EED6"/>
    <path d="M1029.493,529 L1054.827,529 L1054.827,554.333 L1029.493,554.333 L1029.493,529 z" fill="#88BA86"/>
    <text transform="matrix(1, 0, 0, 1, 421.827, 541.667)">
      <tspan x="-35.333" y="6.333" font-family="HelveticaNeue-Light" font-size="30" fill="#383838">8</tspan>
    </text>
    <text transform="matrix(1, 0, 0, 1, 526.163, 541.667)">
      <tspan x="-35.333" y="6.333" font-family="HelveticaNeue-Light" font-size="30" fill="#383838">8GB</tspan>
    </text>
    <text transform="matrix(1, 0, 0, 1, 637.16, 541.667)">
      <tspan x="-35.333" y="6.333" font-family="HelveticaNeue-Light" font-size="30" fill="#383838">8h</tspan>
    </text>
    <text transform="matrix(1, 0, 0, 1, 726.493, 541.667)">
      <tspan x="-35.333" y="6.333" font-family="HelveticaNeue-Light" font-size="30" fill="#383838">300</tspan>
    </text>
    <text transform="matrix(1, 0, 0, 1, 893.827, 360.333)">
      <tspan x="-81.333" y="6.333" font-family="HelveticaNeue-Light" font-size="30" fill="#383838">--</tspan>
    </text>
    <text transform="matrix(1, 0, 0, 1, 893.827, 451)">
      <tspan x="-81.333" y="6.333" font-family="HelveticaNeue-Light" font-size="30" fill="#383838">restricted</tspan>
      <tspan x="38.697" y="6.333" font-family="HelveticaNeue-Light" font-size="30" fill="#383838">**</tspan>
    </text>
    <text transform="matrix(1, 0, 0, 1, 893.827, 405.666)">
      <tspan x="-81.333" y="6.333" font-family="HelveticaNeue-Light" font-size="30" fill="#383838">restricted</tspan>
      <tspan x="38.697" y="6.333" font-family="HelveticaNeue-Light" font-size="30" fill="#383838">**</tspan>
    </text>
    <text transform="matrix(1, 0, 0, 1, 893.827, 496.333)">
      <tspan x="-81.333" y="6.333" font-family="HelveticaNeue-Light" font-size="30" fill="#383838">--</tspan>
    </text>
    <text transform="matrix(1, 0, 0, 1, 893.827, 541.667)">
      <tspan x="-81.333" y="6.333" font-family="HelveticaNeue-Light" font-size="30" fill="#383838">--</tspan>
    </text>
    <g>
      <path d="M114.75,359 L152.31,359" fill-opacity="0" stroke="#383838" stroke-width="3"/>
      <path d="M152.31,363.2 L163.51,359 L152.31,354.8 z" fill="#383838" fill-opacity="1" stroke="#383838" stroke-width="3" stroke-opacity="1"/>
    </g>
    <g>
      <path d="M131.417,406.166 L152.31,406.166" fill-opacity="0" stroke="#383838" stroke-width="3" stroke-linecap="square"/>
      <path d="M152.31,410.366 L163.51,406.166 L152.31,401.966 z" fill="#383838" fill-opacity="1" stroke="#383838" stroke-width="3" stroke-opacity="1"/>
    </g>
    <path d="M131.417,359 L131.417,406.166" fill-opacity="0" stroke="#383838" stroke-width="3" stroke-linecap="square"/>
    <path d="M1065.493,529 L1090.827,529 L1090.827,554.333 L1065.493,554.333 L1065.493,529 z" fill="#D4CCEE"/>
    <text transform="matrix(1, 0, 0, 1, 600, 1249.5)">
      <tspan x="-568.417" y="-5.5" font-family="HelveticaNeue-ThinItalic" font-size="20" fill="#383838">*All jobs should be submitted to the routing queues. The routing queues will place your job according to the requested resources.</tspan>
      <tspan x="-568.417" y="18.5" font-family="HelveticaNeue-ThinItalic" font-size="20" fill="#383838">** Special permission is required to use these queues. Please email helpdesk@bigelow.org to request access.</tspan>
    </text>
    <g>
      <path d="M37.108,-40.93 L44.047,-40.93 C47.143,-40.93 48.993,-42.542 48.993,-45.24 C48.993,-47.94 47.143,-49.55 44.047,-49.55 L37.108,-49.55 z M37.108,-26.696 L44.5,-26.696 C47.578,-26.696 49.491,-28.468 49.491,-31.323 C49.491,-34.149 47.578,-35.905 44.5,-35.905 L37.108,-35.905 z M44.956,-21.67 L31.583,-21.67 L31.583,-54.577 L44.456,-54.577 C50.661,-54.577 54.518,-51.068 54.518,-45.422 C54.518,-42.082 52.641,-39.67 50.604,-38.582 C53.38,-37.197 55.016,-34.45 55.016,-31.097 C55.016,-25.281 51.159,-21.67 44.956,-21.67" fill="#1E4E7B"/>
      <path d="M65.659,-49.051 L60.134,-49.051 L60.134,-54.576 L65.659,-54.576 z M65.523,-21.67 L60.271,-21.67 L60.271,-45.283 L65.523,-45.283 z" fill="#1E4E7B"/>
      <path d="M80.805,-40.801 C76.936,-40.801 76.403,-37.488 76.403,-33.907 C76.403,-30.326 76.936,-27.012 80.805,-27.012 C84.42,-27.012 85.161,-29.769 85.161,-33.907 C85.161,-38.046 84.42,-40.801 80.805,-40.801 M80.261,-12.104 C76.651,-12.104 74.394,-12.948 71.933,-15.224 L71.694,-15.445 L75.087,-18.838 L75.307,-18.63 C76.63,-17.393 77.834,-16.676 80.079,-16.676 C84.666,-16.676 85.161,-20.546 85.161,-22.212 L85.161,-24.352 C83.678,-22.88 81.911,-22.212 79.535,-22.212 C77.23,-22.212 75.203,-22.97 73.827,-24.345 C71.599,-26.574 71.151,-29.656 71.151,-33.907 C71.151,-38.157 71.599,-41.239 73.827,-43.468 C75.172,-44.813 77.216,-45.554 79.581,-45.554 C82.03,-45.554 83.784,-44.883 85.296,-43.339 L85.296,-45.282 L90.412,-45.282 L90.412,-22.12 C90.412,-16.129 86.332,-12.104 80.261,-12.104" fill="#1E4E7B"/>
      <path d="M101.168,-35.672 L110.854,-35.672 C110.798,-36.823 110.655,-37.445 110.257,-38.362 C109.542,-40.061 107.955,-41.074 106.012,-41.074 C104.041,-41.074 102.437,-40.061 101.721,-38.365 C101.323,-37.45 101.217,-36.844 101.168,-35.672 M106.599,-21.398 C101.742,-21.398 95.951,-23.497 95.951,-33.498 C95.951,-40.935 99.805,-45.554 106.012,-45.554 C112.123,-45.554 116.072,-41.089 116.072,-34.181 L116.072,-31.823 L101.16,-31.823 C101.266,-28.126 103.27,-26.016 106.691,-26.016 C109.304,-26.016 110.544,-26.779 112.045,-28.281 L112.259,-28.495 L115.665,-25.301 L115.436,-25.071 C113.168,-22.804 110.9,-21.398 106.599,-21.398" fill="#1E4E7B"/>
      <path d="M131.214,-21.669 L128.044,-21.669 C123.167,-21.669 121.428,-25.111 121.428,-28.331 L121.428,-54.576 L126.68,-54.576 L126.68,-28.602 C126.68,-26.883 127.27,-26.242 128.86,-26.242 L131.214,-26.242 z" fill="#1E4E7B"/>
      <path d="M143.547,-40.801 C142.279,-40.801 141.225,-40.39 140.414,-39.578 C139.036,-38.2 138.92,-35.717 138.92,-33.498 C138.92,-31.281 139.036,-28.798 140.414,-27.42 C141.244,-26.588 142.327,-26.151 143.547,-26.151 C144.797,-26.151 145.896,-26.588 146.726,-27.42 C147.966,-28.66 148.22,-30.748 148.22,-33.498 C148.22,-35.716 148.106,-38.198 146.726,-39.578 C145.926,-40.379 144.827,-40.801 143.547,-40.801 M143.547,-21.398 C140.706,-21.398 138.261,-22.372 136.477,-24.214 C134.007,-26.783 133.666,-30.194 133.666,-33.498 C133.666,-36.778 134.007,-40.168 136.475,-42.738 C138.261,-44.58 140.706,-45.554 143.547,-45.554 C147.171,-45.554 149.418,-44.023 150.664,-42.738 C153.133,-40.167 153.472,-36.777 153.472,-33.498 C153.472,-30.194 153.133,-26.785 150.664,-24.215 C149.418,-22.929 147.171,-21.398 143.547,-21.398" fill="#1CA6DB"/>
      <path d="M181.81,-21.669 L177.409,-21.669 L172.243,-37.046 L167.116,-21.669 L162.67,-21.669 L155.357,-45.284 L160.919,-45.284 L165.151,-29.868 L170.246,-45.284 L174.281,-45.284 L179.332,-29.873 L183.561,-45.284 L189.17,-45.284 z" fill="#1E4E7B"/>
      <path d="M202.812,-10 L201.282,-10 L201.282,-58.703 L202.812,-58.703 z" fill="#1E4E7B"/>
      <path d="M225.233,-45.727 L220.595,-45.727 L220.595,-50.671 L218.777,-50.671 L218.777,-39.026 L220.595,-39.026 L220.595,-44.086 L225.233,-44.086 L225.233,-39.026 L227.053,-39.026 L227.053,-50.671 L225.233,-50.671 z" fill="#1CA6DB"/>
      <path d="M231.536,-47.337 L229.815,-47.337 L229.815,-39.027 L231.536,-39.027 z" fill="#1CA6DB"/>
      <path d="M231.585,-50.721 L229.766,-50.721 L229.766,-48.902 L231.585,-48.902 z" fill="#1CA6DB"/>
      <path d="M238.461,-37.878 C238.489,-37.926 238.52,-37.972 238.545,-38.023 C238.521,-37.972 238.489,-37.926 238.461,-37.878 M238.753,-38.781 C238.748,-38.738 238.742,-38.698 238.734,-38.657 C238.742,-38.698 238.748,-38.738 238.753,-38.781 M237.912,-37.321 C237.979,-37.363 238.047,-37.404 238.107,-37.455 C238.048,-37.404 237.98,-37.363 237.912,-37.321 M237.22,-37.077 C237.276,-37.085 237.333,-37.093 237.387,-37.106 C237.333,-37.093 237.277,-37.085 237.22,-37.077 M237.1,-40.781 C235.64,-40.781 235.439,-42.01 235.439,-43.337 C235.439,-44.663 235.64,-45.89 237.1,-45.89 C238.545,-45.89 238.745,-44.663 238.745,-43.337 C238.745,-42.01 238.545,-40.781 237.1,-40.781 M240.466,-39.108 L240.466,-47.337 L238.792,-47.337 L238.792,-46.512 C238.229,-47.166 237.604,-47.434 236.66,-47.434 C235.834,-47.434 235.122,-47.177 234.655,-46.709 C233.873,-45.93 233.718,-44.842 233.718,-43.337 C233.718,-41.833 233.873,-40.743 234.655,-39.963 C235.131,-39.485 235.839,-39.222 236.643,-39.222 C237.561,-39.222 238.193,-39.49 238.745,-40.112 L238.745,-39.139 C238.745,-37.845 238.031,-37.074 236.84,-37.074 C236.007,-37.074 235.561,-37.339 235.071,-37.796 L235.05,-37.816 L233.972,-36.739 L233.946,-36.716 L233.972,-36.693 C234.839,-35.892 235.634,-35.594 236.905,-35.594 C239.033,-35.594 240.466,-37.006 240.466,-39.108" fill="#1CA6DB"/>
      <path d="M246.855,-47.434 C246.037,-47.434 245.313,-47.131 244.757,-46.555 L244.757,-50.671 L243.036,-50.671 L243.036,-39.027 L244.757,-39.027 L244.757,-44.118 C244.757,-45.227 245.372,-45.89 246.4,-45.89 C247.418,-45.89 248.028,-45.227 248.028,-44.118 L248.028,-39.027 L249.749,-39.027 L249.749,-44.379 C249.749,-46.263 248.641,-47.434 246.855,-47.434" fill="#1CA6DB"/>
      <path d="M258.153,-49.031 L260.659,-49.031 C261.903,-49.031 262.678,-48.301 262.678,-47.126 C262.678,-45.961 261.903,-45.238 260.659,-45.238 L258.153,-45.238 z M258.153,-43.58 L260.758,-43.58 C262.959,-43.58 264.496,-45.038 264.496,-47.126 C264.496,-49.213 262.959,-50.671 260.758,-50.671 L256.335,-50.671 L256.335,-39.026 L258.153,-39.026 z" fill="#1CA6DB"/>
      <path d="M269.472,-45.988 C270.203,-45.988 270.8,-45.606 271.069,-44.967 C271.225,-44.607 271.276,-44.37 271.293,-43.89 L267.651,-43.89 C267.667,-44.375 267.702,-44.605 267.859,-44.967 C268.124,-45.597 268.741,-45.988 269.472,-45.988 M269.683,-38.929 C271.198,-38.929 271.997,-39.424 272.795,-40.222 L272.817,-40.246 L271.739,-41.261 L271.717,-41.282 L271.694,-41.261 C271.152,-40.719 270.676,-40.424 269.715,-40.424 C268.431,-40.424 267.66,-41.263 267.651,-42.67 L273,-42.67 L273,-43.433 C273,-45.863 271.617,-47.433 269.472,-47.433 C267.296,-47.433 265.943,-45.807 265.943,-43.19 C265.943,-39.669 267.978,-38.929 269.683,-38.929" fill="#1CA6DB"/>
      <path d="M276.85,-44.068 C276.85,-45.123 277.529,-45.891 278.464,-45.891 C279.03,-45.891 279.317,-45.709 279.677,-45.347 L279.699,-45.325 L280.973,-46.598 L280.995,-46.621 L280.975,-46.644 C280.421,-47.198 279.826,-47.434 278.984,-47.434 C278.113,-47.434 277.275,-47.071 276.819,-46.505 L276.819,-47.338 L275.129,-47.338 L275.129,-39.027 L276.85,-39.027 z" fill="#1CA6DB"/>
      <path d="M285.891,-47.191 L284.249,-47.191 L284.249,-48.347 C284.249,-48.953 284.553,-49.273 285.129,-49.273 L285.891,-49.273 L285.891,-50.752 L284.818,-50.752 C283.235,-50.752 282.528,-49.584 282.528,-48.428 L282.528,-47.191 L281.584,-47.191 L281.584,-45.858 L282.528,-45.858 L282.528,-39.028 L284.249,-39.028 L284.249,-45.858 L285.891,-45.858 z" fill="#1CA6DB"/>
      <path d="M291.872,-40.952 C291.558,-40.638 291.142,-40.472 290.673,-40.472 C290.214,-40.472 289.805,-40.638 289.491,-40.952 C288.975,-41.468 288.932,-42.378 288.932,-43.191 C288.932,-44.001 288.975,-44.912 289.491,-45.427 C289.798,-45.735 290.195,-45.89 290.673,-45.89 C291.153,-45.89 291.569,-45.73 291.872,-45.427 C292.387,-44.912 292.432,-44.001 292.432,-43.191 C292.432,-42.378 292.387,-41.468 291.872,-40.952 M290.673,-47.434 C289.675,-47.434 288.818,-47.093 288.195,-46.447 C287.33,-45.548 287.211,-44.35 287.211,-43.191 C287.211,-41.841 287.378,-40.767 288.195,-39.915 C288.82,-39.269 289.676,-38.93 290.673,-38.93 C291.946,-38.93 292.731,-39.466 293.168,-39.915 C293.985,-40.767 294.151,-41.841 294.151,-43.191 C294.151,-44.35 294.032,-45.548 293.168,-46.447 C292.733,-46.898 291.948,-47.434 290.673,-47.434" fill="#1CA6DB"/>
      <path d="M298.053,-44.068 C298.053,-45.123 298.731,-45.891 299.664,-45.891 C300.232,-45.891 300.519,-45.709 300.876,-45.347 L300.9,-45.325 L302.175,-46.598 L302.197,-46.621 L302.175,-46.644 C301.622,-47.198 301.027,-47.434 300.185,-47.434 C299.314,-47.434 298.478,-47.071 298.019,-46.505 L298.019,-47.338 L296.331,-47.338 L296.331,-39.027 L298.053,-39.027 z" fill="#1CA6DB"/>
      <path d="M311.892,-45.891 C312.926,-45.891 313.52,-45.233 313.52,-44.084 L313.52,-39.027 L315.241,-39.027 L315.241,-44.328 C315.241,-45.328 314.952,-46.095 314.354,-46.678 C313.856,-47.158 313.09,-47.434 312.251,-47.434 C311.164,-47.434 310.342,-47.058 309.668,-46.254 C309.14,-47.036 308.352,-47.434 307.322,-47.434 C306.488,-47.434 305.704,-47.115 305.157,-46.555 L305.157,-47.337 L303.469,-47.337 L303.469,-39.027 L305.19,-39.027 L305.19,-44.084 C305.19,-45.417 306.056,-45.891 306.867,-45.891 C307.901,-45.891 308.494,-45.233 308.494,-44.084 L308.494,-39.027 L310.215,-39.027 L310.215,-44.167 C310.215,-45.439 311.12,-45.891 311.892,-45.891" fill="#1CA6DB"/>
      <path d="M322.136,-42.036 C322.136,-41.457 322.025,-41.078 321.787,-40.838 C321.341,-40.41 320.854,-40.377 320.263,-40.377 C319.281,-40.377 318.783,-40.759 318.783,-41.516 C318.783,-42.261 319.297,-42.67 320.231,-42.67 L322.136,-42.67 z M322.169,-39.731 L322.169,-39.027 L323.857,-39.027 L323.857,-44.574 C323.857,-46.471 322.704,-47.434 320.426,-47.434 C318.981,-47.434 318.201,-47.12 317.441,-46.236 L317.422,-46.212 L318.534,-45.167 L318.559,-45.142 L318.581,-45.17 C319.045,-45.765 319.476,-45.956 320.361,-45.956 C321.587,-45.956 322.136,-45.489 322.136,-44.444 L322.136,-43.889 L319.988,-43.889 C318.185,-43.889 317.109,-42.989 317.109,-41.481 C317.109,-40.767 317.344,-40.129 317.769,-39.687 C318.293,-39.163 318.983,-38.928 320.003,-38.928 C320.981,-38.928 321.557,-39.141 322.169,-39.731" fill="#1CA6DB"/>
      <path d="M330.199,-47.434 C329.354,-47.434 328.588,-47.123 328.034,-46.555 L328.034,-47.337 L326.345,-47.337 L326.345,-39.027 L328.066,-39.027 L328.066,-44.084 C328.066,-45.416 328.933,-45.89 329.744,-45.89 C330.778,-45.89 331.372,-45.232 331.372,-44.084 L331.372,-39.027 L333.093,-39.027 L333.093,-44.328 C333.093,-45.386 332.834,-46.112 332.253,-46.677 C331.743,-47.172 331.03,-47.434 330.199,-47.434" fill="#1CA6DB"/>
      <path d="M338.865,-45.891 C339.491,-45.891 339.897,-45.689 340.418,-45.12 L340.44,-45.096 L341.603,-46.225 L341.625,-46.248 L341.604,-46.27 C340.824,-47.096 340.031,-47.434 338.865,-47.434 C337.995,-47.434 335.158,-47.128 335.158,-43.189 C335.158,-41.749 335.545,-40.64 336.309,-39.893 C337.125,-39.097 338.149,-38.929 338.865,-38.929 C340.021,-38.929 340.814,-39.271 341.604,-40.11 L341.625,-40.134 L340.464,-41.245 L340.44,-41.267 L340.418,-41.243 C339.897,-40.674 339.491,-40.472 338.865,-40.472 C338.246,-40.472 337.712,-40.727 337.361,-41.192 C337.018,-41.627 336.879,-42.206 336.879,-43.189 C336.879,-44.162 337.018,-44.736 337.361,-45.171 C337.712,-45.635 338.246,-45.891 338.865,-45.891" fill="#1CA6DB"/>
      <path d="M344.957,-44.967 C345.222,-45.597 345.841,-45.988 346.571,-45.988 C347.302,-45.988 347.898,-45.606 348.168,-44.967 C348.325,-44.607 348.374,-44.37 348.393,-43.89 L344.75,-43.89 C344.767,-44.375 344.8,-44.605 344.957,-44.967 M350.098,-43.433 C350.098,-45.863 348.715,-47.433 346.571,-47.433 C344.396,-47.433 343.043,-45.807 343.043,-43.19 C343.043,-39.669 345.076,-38.929 346.782,-38.929 C348.296,-38.929 349.096,-39.424 349.894,-40.222 L349.918,-40.246 L348.837,-41.261 L348.817,-41.282 L348.795,-41.261 C348.25,-40.719 347.775,-40.424 346.815,-40.424 C345.53,-40.424 344.761,-41.263 344.75,-42.67 L350.098,-42.67 z" fill="#1CA6DB"/>
      <path d="M222.549,-31.679 C223.723,-31.679 224.565,-30.965 224.86,-29.72 L224.866,-29.696 L226.717,-29.696 L226.711,-29.734 C226.315,-31.978 224.758,-33.32 222.549,-33.32 C221.359,-33.32 220.299,-32.889 219.484,-32.075 C218.352,-30.943 218.352,-29.647 218.353,-27.497 L218.353,-27.302 C218.352,-25.154 218.352,-23.857 219.484,-22.727 C220.299,-21.912 221.359,-21.481 222.549,-21.481 C224.743,-21.481 226.338,-22.856 226.711,-25.069 L226.717,-25.104 L224.882,-25.104 L224.876,-25.081 C224.582,-23.836 223.734,-23.121 222.549,-23.121 C221.884,-23.121 221.27,-23.373 220.864,-23.811 C220.303,-24.422 220.173,-25.093 220.173,-27.401 C220.173,-29.709 220.303,-30.38 220.864,-30.99 C221.27,-31.428 221.884,-31.679 222.549,-31.679" fill="#1CA6DB"/>
      <path d="M233.061,-23.503 C232.75,-23.19 232.336,-23.022 231.865,-23.022 C231.405,-23.022 230.995,-23.19 230.683,-23.504 C230.166,-24.018 230.121,-24.93 230.121,-25.741 C230.121,-26.553 230.166,-27.464 230.685,-27.979 C230.989,-28.287 231.386,-28.442 231.865,-28.442 C232.347,-28.442 232.761,-28.282 233.062,-27.979 C233.579,-27.464 233.622,-26.553 233.622,-25.741 C233.622,-24.93 233.579,-24.018 233.061,-23.503 M231.865,-29.984 C230.867,-29.984 230.01,-29.643 229.385,-28.999 C228.521,-28.1 228.4,-26.902 228.4,-25.741 C228.4,-24.391 228.568,-23.317 229.385,-22.467 C230.012,-21.823 230.869,-21.482 231.865,-21.482 C233.135,-21.482 233.924,-22.016 234.36,-22.467 C235.177,-23.317 235.345,-24.391 235.345,-25.741 C235.345,-26.902 235.224,-28.1 234.36,-28.999 C233.924,-29.448 233.138,-29.984 231.865,-29.984" fill="#1CA6DB"/>
      <path d="M246.304,-29.984 C245.217,-29.984 244.396,-29.61 243.722,-28.804 C243.193,-29.587 242.405,-29.984 241.377,-29.984 C240.541,-29.984 239.757,-29.665 239.21,-29.105 L239.21,-29.887 L237.522,-29.887 L237.522,-21.578 L239.243,-21.578 L239.243,-26.635 C239.243,-27.968 240.111,-28.442 240.92,-28.442 C241.956,-28.442 242.549,-27.782 242.549,-26.635 L242.549,-21.578 L244.27,-21.578 L244.27,-26.716 C244.27,-27.99 245.173,-28.442 245.945,-28.442 C246.981,-28.442 247.575,-27.782 247.575,-26.635 L247.575,-21.578 L249.296,-21.578 L249.296,-26.88 C249.296,-27.877 249.005,-28.645 248.407,-29.229 C247.911,-29.71 247.143,-29.984 246.304,-29.984" fill="#1CA6DB"/>
      <path d="M255.196,-28.443 C256.587,-28.443 256.874,-27.362 256.874,-25.741 C256.874,-24.111 256.587,-23.022 255.196,-23.022 C253.709,-23.022 253.503,-24.33 253.503,-25.741 C253.503,-27.145 253.709,-28.443 255.196,-28.443 M255.619,-29.985 C254.663,-29.985 254.034,-29.718 253.47,-29.065 L253.47,-29.888 L251.782,-29.888 L251.782,-18.245 L253.503,-18.245 L253.503,-22.371 C254.053,-21.747 254.698,-21.481 255.635,-21.481 C256.449,-21.481 257.186,-21.75 257.657,-22.223 C258.481,-23.045 258.595,-24.399 258.595,-25.741 C258.595,-27.074 258.481,-28.421 257.657,-29.244 C257.188,-29.715 256.444,-29.985 255.619,-29.985" fill="#1CA6DB"/>
      <path d="M265.719,-24.83 C265.719,-23.498 264.851,-23.022 264.04,-23.022 C263.006,-23.022 262.413,-23.682 262.413,-24.83 L262.413,-29.887 L260.692,-29.887 L260.692,-24.588 C260.692,-23.528 260.95,-22.803 261.531,-22.237 C262.045,-21.743 262.755,-21.482 263.585,-21.482 C264.432,-21.482 265.198,-21.793 265.752,-22.36 L265.752,-21.578 L267.44,-21.578 L267.44,-29.887 L265.719,-29.887 z" fill="#1CA6DB"/>
      <path d="M271.924,-32.247 L270.203,-32.247 L270.203,-29.74 L269.259,-29.74 L269.259,-28.411 L270.203,-28.411 L270.203,-23.903 C270.203,-22.745 270.911,-21.579 272.495,-21.579 L273.518,-21.579 L273.518,-23.057 L272.805,-23.057 C272.229,-23.057 271.924,-23.378 271.924,-23.985 L271.924,-28.411 L273.518,-28.411 L273.518,-29.74 L271.924,-29.74 z" fill="#1CA6DB"/>
      <path d="M277.061,-27.518 C277.331,-28.157 277.933,-28.541 278.674,-28.541 C279.405,-28.541 280,-28.157 280.27,-27.518 C280.429,-27.155 280.478,-26.918 280.495,-26.439 L276.852,-26.439 C276.871,-26.928 276.904,-27.156 277.061,-27.518 M278.674,-29.985 C276.498,-29.985 275.146,-28.359 275.146,-25.741 C275.146,-22.22 277.18,-21.481 278.885,-21.481 C280.4,-21.481 281.2,-21.975 281.997,-22.775 L282.021,-22.796 L280.939,-23.812 L280.919,-23.835 L280.897,-23.811 C280.352,-23.268 279.877,-22.975 278.918,-22.975 C277.634,-22.975 276.863,-23.814 276.852,-25.223 L282.202,-25.223 L282.202,-25.984 C282.202,-28.414 280.817,-29.985 278.674,-29.985" fill="#1CA6DB"/>
      <path d="M292.728,-31.679 C293.902,-31.679 294.744,-30.965 295.039,-29.72 L295.046,-29.696 L296.897,-29.696 L296.891,-29.734 C296.494,-31.978 294.938,-33.32 292.728,-33.32 C291.538,-33.32 290.479,-32.889 289.663,-32.075 C288.531,-30.943 288.531,-29.647 288.532,-27.497 L288.532,-27.302 C288.531,-25.154 288.531,-23.857 289.663,-22.727 C290.479,-21.912 291.538,-21.481 292.728,-21.481 C294.922,-21.481 296.518,-22.856 296.891,-25.069 L296.897,-25.104 L295.062,-25.104 L295.055,-25.081 C294.762,-23.836 293.913,-23.121 292.728,-23.121 C292.064,-23.121 291.45,-23.373 291.044,-23.811 C290.482,-24.422 290.352,-25.093 290.352,-27.401 C290.352,-29.709 290.482,-30.38 291.044,-30.99 C291.45,-31.428 292.064,-31.679 292.728,-31.679" fill="#1CA6DB"/>
      <path d="M300.642,-23.985 L300.642,-33.223 L298.921,-33.223 L298.921,-23.886 C298.921,-22.769 299.522,-21.578 301.213,-21.578 L302.268,-21.578 L302.268,-23.057 L301.507,-23.057 C300.893,-23.057 300.642,-23.326 300.642,-23.985" fill="#1CA6DB"/>
      <path d="M308.972,-24.83 C308.972,-23.498 308.106,-23.022 307.295,-23.022 C306.261,-23.022 305.668,-23.682 305.668,-24.83 L305.668,-29.887 L303.947,-29.887 L303.947,-24.588 C303.947,-23.528 304.203,-22.803 304.784,-22.237 C305.298,-21.743 306.009,-21.482 306.84,-21.482 C307.687,-21.482 308.453,-21.793 309.005,-22.359 L309.005,-21.578 L310.693,-21.578 L310.693,-29.887 L308.972,-29.887 z" fill="#1CA6DB"/>
      <path d="M316.719,-28.51 C316.625,-28.526 316.528,-28.537 316.43,-28.546 C316.528,-28.539 316.624,-28.524 316.719,-28.51 M317.732,-28.161 C317.644,-28.215 317.548,-28.264 317.447,-28.307 C317.547,-28.264 317.642,-28.215 317.732,-28.161 M316.941,-26.487 L315.639,-26.602 C314.882,-26.671 314.528,-26.962 314.528,-27.515 C314.528,-28.156 315.077,-28.54 315.994,-28.54 C316.862,-28.54 317.539,-28.34 318.007,-27.945 L318.027,-27.926 L319.09,-29.005 L319.114,-29.029 L319.087,-29.049 C318.367,-29.679 317.36,-29.984 316.01,-29.984 C314.132,-29.984 312.872,-28.959 312.872,-27.433 C312.872,-26.039 313.703,-25.263 315.34,-25.125 L316.657,-25.011 C317.382,-24.95 317.736,-24.643 317.736,-24.067 C317.736,-23.372 317.073,-22.958 315.961,-22.958 C314.953,-22.958 314.162,-23.245 313.61,-23.811 L313.586,-23.834 L312.474,-22.722 L312.452,-22.699 L312.474,-22.677 C313.543,-21.626 314.782,-21.481 315.961,-21.481 C318.097,-21.481 319.423,-22.496 319.423,-24.132 C319.423,-25.556 318.589,-26.349 316.941,-26.487" fill="#1CA6DB"/>
      <path d="M323.291,-32.247 L321.57,-32.247 L321.57,-29.74 L320.627,-29.74 L320.627,-28.411 L321.57,-28.411 L321.57,-23.903 C321.57,-22.745 322.278,-21.579 323.862,-21.579 L324.886,-21.579 L324.886,-23.057 L324.172,-23.057 C323.596,-23.057 323.291,-23.378 323.291,-23.985 L323.291,-28.411 L324.886,-28.411 L324.886,-29.74 L323.291,-29.74 z" fill="#1CA6DB"/>
      <path d="M328.428,-27.518 C328.698,-28.157 329.301,-28.541 330.041,-28.541 C330.773,-28.541 331.369,-28.157 331.637,-27.518 C331.796,-27.155 331.845,-26.918 331.862,-26.439 L328.219,-26.439 C328.238,-26.928 328.271,-27.156 328.428,-27.518 M330.041,-29.985 C327.865,-29.985 326.514,-28.359 326.514,-25.741 C326.514,-22.22 328.547,-21.481 330.252,-21.481 C331.767,-21.481 332.567,-21.975 333.365,-22.775 L333.388,-22.796 L332.307,-23.812 L332.286,-23.835 L332.264,-23.811 C331.72,-23.268 331.244,-22.975 330.286,-22.975 C329.001,-22.975 328.23,-23.814 328.219,-25.223 L333.569,-25.223 L333.569,-25.984 C333.569,-28.414 332.185,-29.985 330.041,-29.985" fill="#1CA6DB"/>
      <path d="M339.552,-29.984 C338.681,-29.984 337.845,-29.622 337.389,-29.056 L337.389,-29.887 L335.699,-29.887 L335.699,-21.578 L337.42,-21.578 L337.42,-26.62 C337.42,-27.676 338.099,-28.442 339.032,-28.442 C339.6,-28.442 339.887,-28.258 340.245,-27.9 L340.268,-27.876 L341.543,-29.151 L341.567,-29.172 L341.543,-29.194 C340.989,-29.749 340.395,-29.984 339.552,-29.984" fill="#1CA6DB"/>
    </g>
    <path d="M53.5,674.833 L1150.333,674.833 L1150.333,748.833 L53.5,748.833 L53.5,674.833 z" fill="#EED6D6"/>
    <text transform="matrix(1, 0, 0, 1, 580.917, 711.833)">
      <tspan x="-508.667" y="7" font-family="HelveticaNeue" font-size="30" fill="#383838">sfe: login node (for remote acces)</tspan>
    </text>
  </g>
</svg>
